<svg width="124" height="31" viewBox="0 0 124 31" fill="none" xmlns="http://www.w3.org/2000/svg">
<g clip-path="url(#clip0_2_2225)">
<path d="M0 29.6727V11.2941C0 10.925 0.290058 10.6298 0.652632 10.6298H4.27836C4.64094 10.6298 4.93099 10.925 4.93099 11.2941C4.93099 11.6631 5.29357 11.8846 5.58363 11.6631C6.9614 10.7036 8.55673 10.2608 10.152 10.2608C12.6175 10.2608 14.8655 11.3679 16.3158 12.9917C16.4608 13.1393 16.7509 13.2131 16.9684 12.9917C18.4912 11.5155 20.8117 10.1869 23.4947 10.1869C26.1778 10.1869 28.7158 11.4417 30.3111 13.3608C31.5439 14.9108 32.269 16.9036 32.269 19.856V29.5988C32.269 29.9679 31.9789 30.2631 31.5439 30.2631H27.7006C27.338 30.2631 26.9754 29.9679 26.9754 29.5988V19.6346C26.9754 17.8631 26.6129 16.9036 26.0328 16.2393C25.2351 15.3536 24.0749 14.9846 23.1322 14.9846C21.0292 14.9846 19.2889 16.3869 18.5637 17.4203C18.4912 17.4941 18.4912 17.6417 18.4912 17.7155C18.5637 18.306 18.6363 19.0441 18.6363 19.7822V29.525C18.6363 29.8941 18.3462 30.1893 17.9111 30.1893H14.0678C13.7053 30.1893 13.3427 29.8941 13.3427 29.525V19.6346C13.3427 17.8631 12.9801 16.9036 12.4 16.2393C11.6023 15.3536 10.4421 14.9846 9.49942 14.9846C7.39649 14.9846 5.87368 16.3869 5.07602 17.2727C5.00351 17.3465 5.00351 17.4203 5.00351 17.5679V29.525C5.00351 29.8941 4.71345 30.1893 4.35088 30.1893H0.652632C0.290058 30.3369 0 30.0417 0 29.6727V29.6727ZM39.9556 0.222656C41.8409 0.222656 43.3637 1.69885 43.3637 3.61789C43.3637 5.53694 41.8409 7.01313 39.9556 7.01313C38.0702 7.01313 36.5474 5.53694 36.5474 3.61789C36.6199 1.69885 38.1427 0.222656 39.9556 0.222656V0.222656ZM41.9135 30.3369H38.0702C37.7076 30.3369 37.345 30.0417 37.345 29.6727V12.8441C37.345 11.3679 38.5053 10.1869 39.9556 10.1869C41.4058 10.1869 42.5661 11.3679 42.5661 12.8441V29.6727C42.5661 30.0417 42.276 30.3369 41.9135 30.3369V30.3369ZM56.4889 15.7227L59.7521 10.925C59.8971 10.7774 60.1146 10.6298 60.3322 10.6298H64.538C65.1181 10.6298 65.4082 11.2941 65.1181 11.7369L59.5345 19.5608C59.462 19.7084 59.462 19.9298 59.5345 20.0774L65.9883 29.2298C66.2784 29.6727 65.9883 30.3369 65.4082 30.3369H60.9123C60.6947 30.3369 60.4772 30.2631 60.3322 30.0417L56.3439 24.2108C56.1988 23.9893 55.8363 23.9893 55.6912 24.2108L51.7029 30.0417C51.5579 30.1893 51.3404 30.3369 51.1228 30.3369H46.6269C46.0468 30.3369 45.7567 29.6727 46.0468 29.2298L52.5006 20.0774C52.5731 19.9298 52.5731 19.7084 52.5006 19.5608L47.1345 11.6631C46.8444 11.2203 47.1345 10.556 47.7146 10.556H51.993C52.2105 10.556 52.4281 10.6298 52.5731 10.8512L55.8363 15.6488C55.9813 15.9441 56.2713 15.9441 56.4889 15.7227V15.7227ZM72.3696 30.706C70.9193 30.706 69.7591 29.525 69.7591 28.0488V2.1417C69.7591 1.77266 70.0491 1.47742 70.4117 1.47742H74.255C74.6175 1.47742 74.9076 1.77266 74.9076 2.1417V28.1227C74.9076 29.525 73.8199 30.706 72.3696 30.706V30.706ZM104.494 30.3369H108.119C108.482 30.3369 108.772 30.0417 108.772 29.6727C108.772 29.3036 109.135 29.0822 109.425 29.3036C110.875 30.3369 112.47 30.7798 114.138 30.7798C117.039 30.7798 119.722 29.4512 121.462 27.4584C122.985 25.6869 123.927 23.2512 123.927 20.5203C123.927 14.7631 119.722 10.2608 114.428 10.2608C112.615 10.2608 111.02 10.7036 109.642 11.5893C109.352 11.8108 108.989 11.5893 108.989 11.2203V2.1417C108.989 1.77266 108.699 1.47742 108.337 1.47742H104.494C104.131 1.47742 103.841 1.77266 103.841 2.1417V29.6727C103.841 30.0417 104.131 30.3369 104.494 30.3369V30.3369ZM113.775 15.1322C116.676 15.1322 119.069 17.4941 119.069 20.5203C119.069 23.4727 116.676 25.9084 113.775 25.9084C110.875 25.9084 108.482 23.4727 108.482 20.5203C108.554 17.4941 110.947 15.1322 113.775 15.1322ZM98.4749 10.6298H94.8491C94.4866 10.6298 94.1965 10.925 94.1965 11.2941C94.1965 11.6631 93.8339 11.8846 93.5439 11.6631C92.0936 10.7036 90.4257 10.1869 88.5404 10.1869C83.2468 10.1869 79.0409 14.6155 79.0409 20.4465C79.0409 23.1774 79.9836 25.6131 81.5064 27.3846C83.2468 29.4512 85.9298 30.706 88.8304 30.706C90.5708 30.706 92.0936 30.2631 93.5439 29.2298C93.8339 29.0084 94.1965 29.2298 94.1965 29.5988V29.6727C94.1965 30.0417 94.4866 30.3369 94.8491 30.3369H98.4749C98.8374 30.3369 99.1275 30.0417 99.1275 29.6727V11.2941C99.2 10.925 98.8374 10.6298 98.4749 10.6298ZM89.1205 25.8346C86.2199 25.8346 83.8269 23.3988 83.8269 20.4465C83.8269 17.4203 86.2199 15.0584 89.1205 15.0584C92.0211 15.0584 94.414 17.4203 94.414 20.4465C94.4866 23.4727 92.0936 25.8346 89.1205 25.8346V25.8346Z" fill="#F5A61C"/>
</g>
<defs>
<clipPath id="clip0_2_2225">
<rect width="124" height="31" fill="white"/>
</clipPath>
</defs>
</svg>
